<svg xmlns="http://www.w3.org/2000/svg" viewBox="0 0 64 64" role="img" aria-label="WhatsApp">
  <circle cx="32" cy="32" r="31" fill="#25D366"/>
  <path fill="#fff" d="M46.7 17.2A20.2 20.2 0 0 0 15 41.6L12.8 52l10.6-2.1a20.2 20.2 0 0 0 23.3-32.7ZM32 48.6a16.4 16.4 0 0 1-8.4-2.3l-.6-.4-6.3 1.3 1.3-6.1-.4-.7A16.4 16.4 0 1 1 32 48.6Zm9-12.2c-.5-.3-3-1.5-3.5-1.6-.5-.2-.9-.3-1.2.3-.4.5-1.4 1.6-1.7 2-.3.3-.6.4-1.1.1-.5-.3-2.1-.8-4-2.5-1.5-1.3-2.5-3-2.8-3.5-.3-.5 0-.8.2-1.1.2-.2.5-.6.8-.9.2-.3.3-.5.5-.9.2-.3.1-.7 0-1-.1-.3-1.2-3-1.7-4.1-.4-1.1-.9-.9-1.2-.9h-1c-.4 0-1 .1-1.5.7s-2 2-2 4.8 2.1 5.6 2.4 6c.3.4 4.1 6.3 10 8.8 1.4.6 2.5 1 3.4 1.2 1.4.4 2.7.3 3.7.2 1.1-.2 3-1.2 3.5-2.4.4-1.2.4-2.2.3-2.4-.2-.3-.6-.4-1.1-.7Z"/>
</svg>
